<svg width="500" height="500" viewBox="0 0 757 780" fill="none" xmlns="http://www.w3.org/2000/svg">
<ellipse cx="361.5" cy="344" rx="339.5" ry="339" fill="#ebe4fc"/>
<path d="M640.456 296.622C642.202 306.948 643.387 317.465 643.979 328.14L641.483 328.278C641.771 333.482 641.917 338.724 641.917 344C641.917 349.276 641.771 354.518 641.483 359.722L643.979 359.86C643.387 370.535 642.202 381.052 640.456 391.378L637.991 390.961C636.229 401.381 633.891 411.604 631.01 421.599L633.412 422.291C630.465 432.512 626.957 442.496 622.921 452.206L620.613 451.246C616.574 460.965 612.002 470.407 606.934 479.537L609.12 480.75C603.974 490.021 598.322 498.972 592.199 507.566L590.163 506.115C584.074 514.663 577.517 522.854 570.528 530.652L572.389 532.321C565.331 540.196 557.837 547.674 549.945 554.716L548.28 552.85C540.468 559.821 532.263 566.361 523.701 572.433L525.147 574.473C516.542 580.576 507.58 586.211 498.298 591.34L497.089 589.152C487.951 594.202 478.5 598.757 468.774 602.782L469.73 605.092C460.015 609.112 450.026 612.607 439.801 615.541L439.111 613.138C429.114 616.007 418.887 618.336 408.465 620.091L408.88 622.556C398.553 624.295 388.036 625.475 377.361 626.064L377.223 623.567C372.019 623.854 366.777 624 361.501 624C356.224 624 350.982 623.854 345.778 623.567L345.64 626.064C334.965 625.475 324.448 624.295 314.121 622.556L314.536 620.091C304.114 618.336 293.888 616.007 283.89 613.138L283.201 615.541C272.975 612.607 262.987 609.112 253.272 605.092L254.227 602.782C244.501 598.757 235.051 594.202 225.912 589.152L224.703 591.34C215.422 586.211 206.459 580.576 197.854 574.473L199.3 572.433C190.739 566.361 182.533 559.821 174.721 552.85L173.057 554.716C165.164 547.674 157.67 540.196 150.612 532.321L152.474 530.652C145.485 522.854 138.927 514.663 132.838 506.115L130.802 507.566C124.68 498.972 119.027 490.021 113.881 480.75L116.067 479.537C110.999 470.407 106.428 460.965 102.389 451.246L100.08 452.206C96.0446 442.496 92.5359 432.512 89.5895 422.291L91.9917 421.599C89.1108 411.604 86.7724 401.381 85.0103 390.961L82.5453 391.378C80.7991 381.052 79.614 370.535 79.0223 359.86L81.5185 359.722C81.2301 354.518 81.084 349.276 81.084 344C81.084 338.724 81.2301 333.482 81.5185 328.278L79.0223 328.14C79.614 317.465 80.7991 306.948 82.5453 296.622L85.0103 297.039C86.7724 286.619 89.1108 276.396 91.9917 266.402L89.5895 265.709C92.5359 255.488 96.0446 245.504 100.08 235.794L102.389 236.754C106.428 227.035 110.999 217.593 116.067 208.463L113.881 207.249C119.027 197.979 124.68 189.028 130.802 180.434L132.838 181.885C138.927 173.337 145.485 165.146 152.474 157.348L150.612 155.679C157.67 147.804 165.164 140.326 173.057 133.284L174.721 135.15C182.533 128.179 190.739 121.639 199.3 115.567L197.854 113.527C206.459 107.424 215.422 101.789 224.703 96.6599L225.912 98.848C235.051 93.7979 244.501 89.2426 254.227 85.2182L253.272 82.9081C262.987 78.8883 272.975 75.3933 283.201 72.4587L283.89 74.8617C293.888 71.9927 304.114 69.664 314.536 67.9094L314.121 65.4441C324.448 63.7054 334.965 62.5254 345.64 61.9364L345.778 64.4326C350.982 64.1455 356.224 64 361.501 64C366.777 64 372.019 64.1455 377.223 64.4326L377.361 61.9364C388.036 62.5254 398.553 63.7054 408.88 65.4441L408.465 67.9094C418.887 69.664 429.114 71.9927 439.111 74.8617L439.801 72.4587C450.026 75.3933 460.015 78.8883 469.73 82.9081L468.774 85.2182C478.5 89.2426 487.951 93.7979 497.089 98.848L498.298 96.6599C507.58 101.789 516.542 107.424 525.147 113.527L523.701 115.567C532.263 121.639 540.468 128.179 548.28 135.15L549.945 133.284C557.837 140.326 565.331 147.804 572.389 155.679L570.528 157.348C577.517 165.146 584.074 173.337 590.163 181.885L592.199 180.434C598.322 189.028 603.974 197.979 609.12 207.25L606.934 208.463C612.002 217.593 616.574 227.035 620.613 236.754L622.921 235.795C626.957 245.505 630.465 255.488 633.412 265.709L631.01 266.401C633.891 276.396 636.229 286.619 637.991 297.039L640.456 296.622Z" fill="#ebe4fc" stroke="white" stroke-width="5" stroke-dasharray="30 30"/>
<path d="M568 23H732.85C746.188 23 757 33.8123 757 47.15V153H568V23Z" fill="#F9E000"/>
<path d="M568 12C568 5.37258 573.373 0 580 0H613C624.046 0 633 8.9543 633 20V23H568V12Z" fill="#F9E000"/>
<rect x="568" y="49" width="189" height="104" fill="#F3BE00"/>
<rect x="611" y="22.4968" width="23" height="32" transform="rotate(-35.9318 611 22.4968)" fill="#F9E000"/>
<path d="M99 196C99 182.745 109.745 172 123 172H598C611.255 172 622 182.745 622 196V505H99V196Z" fill="black"/>
<rect x="121" y="199" width="241" height="279" fill="#00C9A5"/>
<rect x="362" y="199" width="239" height="279" fill="#00AE8F"/>
<rect x="141" y="228" width="12" height="12" fill="#00B594"/>
<rect x="141" y="431" width="12" height="12" fill="#00B594"/>
<rect x="141" y="402" width="12" height="12" fill="#00B594"/>
<rect x="141" y="373" width="12" height="12" fill="#00B594"/>
<rect x="141" y="344" width="12" height="12" fill="#00B594"/>
<rect x="141" y="315" width="12" height="12" fill="#00B594"/>
<rect x="141" y="286" width="12" height="12" fill="#00B594"/>
<rect x="141" y="257" width="12" height="12" fill="#00B594"/>
<rect x="167" y="228" width="121" height="12" fill="#00B594"/>
<rect x="167" y="431" width="160" height="12" fill="#00B594"/>
<rect x="167" y="402" width="89" height="12" fill="#00B594"/>
<rect x="167" y="373" width="121" height="12" fill="#00B594"/>
<rect x="167" y="344" width="160" height="12" fill="#00B594"/>
<rect x="167" y="315" width="121" height="12" fill="#00B594"/>
<rect x="167" y="286" width="160" height="12" fill="#00B594"/>
<rect x="167" y="257" width="89" height="12" fill="#00B594"/>
<rect x="383" y="228" width="145" height="12" fill="#CECECE"/>
<rect x="383" y="431" width="192" height="12" fill="#CECECE"/>
<rect x="383" y="402" width="107" height="12" fill="#CECECE"/>
<rect x="383" y="373" width="145" height="12" fill="#CECECE"/>
<rect x="383" y="344" width="192" height="12" fill="#CECECE"/>
<rect x="383" y="315" width="145" height="12" fill="#CECECE"/>
<rect x="383" y="286" width="192" height="12" fill="#CECECE"/>
<rect x="383" y="257" width="107" height="12" fill="#CECECE"/>
<rect x="448" y="228" width="25" height="12" fill="#FFB26A"/>
<rect x="417" y="431" width="101" height="12" fill="#FF7B5F"/>
<rect x="448" y="402" width="42" height="12" fill="#FF4B23"/>
<rect x="436" y="373" width="43" height="12" fill="#00F1E3"/>
<rect x="396" y="344" width="64" height="12" fill="#FFB26A"/>
<rect x="407" y="315" width="98" height="12" fill="#FF4B23"/>
<rect x="383" y="286" width="151" height="12" fill="#FFB26A"/>
<rect x="424" y="257" width="58" height="12" fill="#00F1E3"/>
<circle cx="359" cy="185" r="3" fill="#989898"/>
<path d="M73 505H677C677 517.703 666.703 528 654 528H73V505Z" fill="black"/>
<rect x="301" y="517" width="36" height="58" fill="#F4B000"/>
<rect x="288" y="558" width="62" height="181" rx="31" fill="#FFC01D"/>
<path d="M288 489H350V494C350 510.569 336.569 524 320 524H318C301.431 524 288 510.569 288 494V489Z" fill="#FF9416"/>
<rect x="288" y="588" width="12" height="126" rx="6" fill="#FF9416"/>
<rect x="313" y="582" width="12" height="139" rx="6" fill="#FF9416"/>
<rect x="338" y="588" width="12" height="126" rx="6" fill="#FF9416"/>
<rect x="311" y="253" width="15" height="236" fill="#25272C"/>
<path fill-rule="evenodd" clip-rule="evenodd" d="M300 253H338V294.866L326.074 322H311.361L300 296.014V253Z" fill="#25272C"/>
<rect x="300" y="240" width="38" height="13" fill="#FF9416"/>
<path d="M0 455C0 448.373 5.37258 443 12 443H235C241.627 443 247 448.373 247 455V668H0V455Z" fill="#334061"/>
<path fill-rule="evenodd" clip-rule="evenodd" d="M12 443C5.37258 443 0 448.373 0 455V473H247V455C247 448.373 241.627 443 235 443H12ZM72 453H19V464H72V453Z" fill="#FEF3CD"/>
<circle cx="211" cy="458" r="5" fill="#334061"/>
<circle cx="229" cy="458" r="5" fill="#E15100"/>
<rect x="17" y="502" width="48" height="39" fill="#ACA288"/>
<rect x="17" y="555" width="48" height="39" fill="#ACA288"/>
<rect x="17" y="608" width="48" height="39" fill="#ACA288"/>
<rect x="75" y="502" width="131" height="7" fill="#5E74AB"/>
<rect x="75" y="512" width="110" height="7" fill="#5E74AB"/>
<rect x="75" y="522" width="67" height="7" fill="#5E74AB"/>
<rect x="75" y="532" width="146" height="7" fill="#5E74AB"/>
<rect x="75" y="608" width="110" height="7" fill="#5E74AB"/>
<rect x="75" y="618" width="67" height="7" fill="#5E74AB"/>
<rect x="75" y="628" width="146" height="7" fill="#5E74AB"/>
<rect x="75" y="638" width="110" height="7" fill="#5E74AB"/>
<rect x="75" y="555" width="131" height="7" fill="#5E74AB"/>
<rect x="75" y="565" width="67" height="7" fill="#5E74AB"/>
<rect x="75" y="575" width="110" height="7" fill="#5E74AB"/>
<rect x="75" y="585" width="131" height="7" fill="#5E74AB"/>
<rect x="134" y="502" width="49" height="7" fill="#FFC086"/>
<rect x="87" y="512" width="41" height="7" fill="#8886FF"/>
<path d="M111 522H136V529H111V522Z" fill="#FFC086"/>
<rect x="132" y="532" width="89" height="7" fill="#FF8686"/>
<rect x="124" y="608" width="41" height="7" fill="#8886FF"/>
<rect x="81" y="618" width="25" height="7" fill="#FF8686"/>
<rect x="114" y="628" width="54" height="7" fill="#FF8686"/>
<rect x="83" y="638" width="41" height="7" fill="#FFC086"/>
<rect x="108" y="555" width="49" height="7" fill="#8886FF"/>
<rect x="79" y="565" width="25" height="7" fill="#90FF86"/>
<rect x="124" y="575" width="41" height="7" fill="#FF8686"/>
<rect x="96" y="585" width="49" height="7" fill="#90FF86"/>
<path fill-rule="evenodd" clip-rule="evenodd" d="M667 764.857L756.542 721.937L747.465 703L667 741.57V764.857Z" fill="#9E5CF2"/>
<rect x="739" y="702" width="18" height="19" fill="#9E5CF2"/>
<path fill-rule="evenodd" clip-rule="evenodd" d="M669 683.289L747.462 720.904L756.54 701.968L669 660V683.289Z" fill="#9E5CF2"/>
<path fill-rule="evenodd" clip-rule="evenodd" d="M577 763.857L487.458 720.937L496.535 702L577 740.57V763.857Z" fill="#9E5CF2"/>
<rect width="18" height="19" transform="matrix(-1 0 0 1 505 701)" fill="#9E5CF2"/>
<path fill-rule="evenodd" clip-rule="evenodd" d="M575 682.289L496.538 719.904L487.46 700.968L575 659V682.289Z" fill="#9E5CF2"/>
<path fill-rule="evenodd" clip-rule="evenodd" d="M587.977 778.855L630.563 645H655.748L612.798 780H591.574L587.977 778.855Z" fill="#9E5CF2"/>
<rect x="125" y="104" width="34" height="34" fill="#D9D9D9"/>
<path d="M138.386 139.2C139.478 139.398 140.603 139.502 141.752 139.502C152.107 139.502 160.502 131.107 160.502 120.752C160.502 111.586 153.925 103.956 145.233 102.324C150.822 84.407 161.924 77.312 178.541 81.0391L186.875 88.0033H198.664L205.14 103.47L193.998 111.81V126.516L205.14 140.817L198.664 151.007H186.875L174.326 157.87V175.61L159.254 184.637L143.339 171.026H133.527L121.802 184.637L108.137 175.61V157.87C123.071 162.922 133.154 156.698 138.386 139.2ZM141.752 127.002C138.3 127.002 135.502 124.203 135.502 120.752C135.502 117.3 138.3 114.502 141.752 114.502C145.204 114.502 148.002 117.3 148.002 120.752C148.002 124.203 145.204 127.002 141.752 127.002Z" fill="#9B9B9B"/>
<path d="M138.386 139.2C139.478 139.398 140.603 139.502 141.752 139.502C152.107 139.502 160.502 131.107 160.502 120.752C160.502 111.586 153.925 103.956 145.233 102.324C150.822 84.407 161.924 77.312 178.541 81.0391L186.875 88.0033H198.664L205.14 103.47L193.998 111.81V126.516L205.14 140.817L198.664 151.007H186.875L174.326 157.87V175.61L159.254 184.637L143.339 171.026H133.527L121.802 184.637L108.137 175.61V157.87C123.071 162.922 133.154 156.698 138.386 139.2ZM141.752 127.002C138.3 127.002 135.502 124.203 135.502 120.752C135.502 117.3 138.3 114.502 141.752 114.502C145.204 114.502 148.002 117.3 148.002 120.752C148.002 124.203 145.204 127.002 141.752 127.002Z" fill="#9B9B9B"/>
<mask id="mask0_530_26" style="mask-type:luminance" maskUnits="userSpaceOnUse" x="108" y="80" width="98" height="105">
<path d="M138.386 139.2C139.478 139.398 140.603 139.502 141.752 139.502C152.107 139.502 160.502 131.107 160.502 120.752C160.502 111.586 153.925 103.956 145.233 102.324C150.822 84.407 161.924 77.312 178.541 81.0391L186.875 88.0033H198.664L205.14 103.47L193.998 111.81V126.516L205.14 140.817L198.664 151.007H186.875L174.326 157.87V175.61L159.254 184.637L143.339 171.026H133.527L121.802 184.637L108.137 175.61V157.87C123.071 162.922 133.154 156.698 138.386 139.2ZM141.752 127.002C138.3 127.002 135.502 124.203 135.502 120.752C135.502 117.3 138.3 114.502 141.752 114.502C145.204 114.502 148.002 117.3 148.002 120.752C148.002 124.203 145.204 127.002 141.752 127.002Z" fill="white"/>
</mask>
<g mask="url(#mask0_530_26)">
<path d="M216.752 45.7517H66.752V195.752H216.752V45.7517Z" fill="#E2E2E2"/>
</g>
<path d="M145.753 102.437C144.662 102.239 143.537 102.136 142.388 102.136C132.032 102.136 123.638 110.53 123.638 120.886C123.638 130.051 130.214 137.681 138.906 139.313C133.318 157.23 122.215 164.325 105.599 160.598L97.2645 153.634H85.4756L78.9998 138.168L90.1417 129.827V115.121L78.9998 100.82L85.4756 90.6304H97.2645L109.813 83.767V66.0271L124.886 57L140.801 70.6109H150.612L162.337 57L176.003 66.0271V83.767C161.069 78.7156 150.985 84.9388 145.753 102.437ZM142.388 114.636C145.84 114.636 148.638 117.434 148.638 120.886C148.638 124.337 145.84 127.136 142.388 127.136C138.936 127.136 136.138 124.337 136.138 120.886C136.138 117.434 138.936 114.636 142.388 114.636Z" fill="#9B9B9B"/>
<path d="M145.753 102.437C144.662 102.239 143.537 102.136 142.388 102.136C132.032 102.136 123.638 110.53 123.638 120.886C123.638 130.051 130.214 137.681 138.906 139.313C133.318 157.23 122.215 164.325 105.599 160.598L97.2645 153.634H85.4756L78.9998 138.168L90.1417 129.827V115.121L78.9998 100.82L85.4756 90.6304H97.2645L109.813 83.767V66.0271L124.886 57L140.801 70.6109H150.612L162.337 57L176.003 66.0271V83.767C161.069 78.7156 150.985 84.9388 145.753 102.437ZM142.388 114.636C145.84 114.636 148.638 117.434 148.638 120.886C148.638 124.337 145.84 127.136 142.388 127.136C138.936 127.136 136.138 124.337 136.138 120.886C136.138 117.434 138.936 114.636 142.388 114.636Z" fill="#9B9B9B"/>
<path d="M85.5017 101.169C92.4105 104.966 97.0929 112.312 97.0929 120.752C97.0929 129.192 92.4105 136.538 85.5017 140.334C86.2588 142.509 87.1385 144.627 88.1325 146.679C95.7016 144.479 104.206 146.363 110.173 152.33C116.14 158.297 118.024 166.802 115.825 174.371C117.877 175.365 119.994 176.245 122.169 177.002C125.966 170.093 133.312 165.41 141.752 165.41C150.192 165.41 157.538 170.093 161.334 177.002C163.509 176.245 165.627 175.365 167.679 174.371C165.479 166.802 167.363 158.297 173.33 152.33C179.297 146.363 187.802 144.479 195.371 146.679C196.365 144.627 197.245 142.509 198.002 140.334C191.093 136.538 186.41 129.192 186.41 120.752C186.41 112.312 191.093 104.966 198.002 101.169C197.245 98.9941 196.365 96.8766 195.371 94.8247C187.802 97.0243 179.297 95.1404 173.33 89.1732C167.363 83.2059 165.479 74.7016 167.679 67.1325C165.627 66.1385 163.509 65.2588 161.334 64.5017C157.538 71.4105 150.192 76.0929 141.752 76.0929C133.312 76.0929 125.966 71.4105 122.169 64.5017C119.994 65.2588 117.877 66.1385 115.825 67.1325C118.024 74.7016 116.14 83.2059 110.173 89.1732C104.206 95.1404 95.7016 97.0243 88.1325 94.8247C87.1385 96.8766 86.2588 98.9941 85.5017 101.169ZM73.6965 97.0597C74.6098 94.4359 75.6741 91.8705 76.8829 89.3751C79.5404 83.8893 85.7672 81.1203 91.6206 82.8212C95.0531 83.8187 98.7659 82.9027 101.334 80.3343C103.903 77.7659 104.819 74.0531 103.821 70.6206C102.12 64.7672 104.889 58.5404 110.375 55.8829C112.871 54.6741 115.436 53.6098 118.06 52.6965C123.82 50.6913 130.187 53.1363 133.124 58.4818C134.846 61.6147 138.119 63.5929 141.752 63.5929C145.384 63.5929 148.658 61.6147 150.379 58.4818C153.317 53.1363 159.683 50.6913 165.444 52.6965C168.068 53.6098 170.633 54.6741 173.128 55.8829C178.614 58.5404 181.383 64.7672 179.682 70.6206C178.685 74.0531 179.601 77.7659 182.169 80.3343C184.737 82.9027 188.45 83.8187 191.883 82.8212C197.736 81.1203 203.963 83.8893 206.62 89.3751C207.829 91.8705 208.894 94.4359 209.807 97.0597C211.812 102.82 209.367 109.187 204.022 112.124C200.889 113.846 198.91 117.119 198.91 120.752C198.91 124.384 200.889 127.658 204.022 129.379C209.367 132.317 211.812 138.683 209.807 144.444C208.894 147.068 207.829 149.633 206.62 152.128C203.963 157.614 197.736 160.383 191.883 158.682C188.45 157.685 184.737 158.601 182.169 161.169C179.601 163.737 178.685 167.45 179.682 170.883C181.383 176.736 178.614 182.963 173.128 185.62C170.633 186.829 168.068 187.894 165.444 188.807C159.683 190.812 153.317 188.367 150.379 183.022C148.658 179.889 145.384 177.91 141.752 177.91C138.119 177.91 134.846 179.889 133.124 183.022C130.187 188.367 123.82 190.812 118.06 188.807C115.436 187.894 112.871 186.829 110.375 185.62C104.889 182.963 102.12 176.736 103.821 170.883C104.819 167.45 103.903 163.737 101.334 161.169C98.7659 158.601 95.0531 157.685 91.6206 158.682C85.7672 160.383 79.5404 157.614 76.8829 152.128C75.6741 149.633 74.6098 147.068 73.6965 144.444C71.6913 138.683 74.1363 132.317 79.4818 129.379C82.6147 127.658 84.5929 124.384 84.5929 120.752C84.5929 117.119 82.6147 113.846 79.4818 112.124C74.1363 109.187 71.6913 102.82 73.6965 97.0597ZM141.752 145.752C155.559 145.752 166.752 134.559 166.752 120.752C166.752 106.945 155.559 95.7517 141.752 95.7517C127.945 95.7517 116.752 106.945 116.752 120.752C116.752 134.559 127.945 145.752 141.752 145.752ZM141.752 133.252C134.848 133.252 129.252 127.655 129.252 120.752C129.252 113.848 134.848 108.252 141.752 108.252C148.655 108.252 154.252 113.848 154.252 120.752C154.252 127.655 148.655 133.252 141.752 133.252Z" fill="black"/>
<mask id="mask1_530_26" style="mask-type:luminance" maskUnits="userSpaceOnUse" x="73" y="52" width="138" height="138">
<path d="M85.5017 101.169C92.4105 104.966 97.0929 112.312 97.0929 120.752C97.0929 129.192 92.4105 136.538 85.5017 140.334C86.2588 142.509 87.1385 144.627 88.1325 146.679C95.7016 144.479 104.206 146.363 110.173 152.33C116.14 158.297 118.024 166.802 115.825 174.371C117.877 175.365 119.994 176.245 122.169 177.002C125.966 170.093 133.312 165.41 141.752 165.41C150.192 165.41 157.538 170.093 161.334 177.002C163.509 176.245 165.627 175.365 167.679 174.371C165.479 166.802 167.363 158.297 173.33 152.33C179.297 146.363 187.802 144.479 195.371 146.679C196.365 144.627 197.245 142.509 198.002 140.334C191.093 136.538 186.41 129.192 186.41 120.752C186.41 112.312 191.093 104.966 198.002 101.169C197.245 98.9941 196.365 96.8766 195.371 94.8247C187.802 97.0243 179.297 95.1404 173.33 89.1732C167.363 83.2059 165.479 74.7016 167.679 67.1325C165.627 66.1385 163.509 65.2588 161.334 64.5017C157.538 71.4105 150.192 76.0929 141.752 76.0929C133.312 76.0929 125.966 71.4105 122.169 64.5017C119.994 65.2588 117.877 66.1385 115.825 67.1325C118.024 74.7016 116.14 83.2059 110.173 89.1732C104.206 95.1404 95.7016 97.0243 88.1325 94.8247C87.1385 96.8766 86.2588 98.9941 85.5017 101.169ZM73.6965 97.0597C74.6098 94.4359 75.6741 91.8705 76.8829 89.3751C79.5404 83.8893 85.7672 81.1203 91.6206 82.8212C95.0531 83.8187 98.7659 82.9027 101.334 80.3343C103.903 77.7659 104.819 74.0531 103.821 70.6206C102.12 64.7672 104.889 58.5404 110.375 55.8829C112.871 54.6741 115.436 53.6098 118.06 52.6965C123.82 50.6913 130.187 53.1363 133.124 58.4818C134.846 61.6147 138.119 63.5929 141.752 63.5929C145.384 63.5929 148.658 61.6147 150.379 58.4818C153.317 53.1363 159.683 50.6913 165.444 52.6965C168.068 53.6098 170.633 54.6741 173.128 55.8829C178.614 58.5404 181.383 64.7672 179.682 70.6206C178.685 74.0531 179.601 77.7659 182.169 80.3343C184.737 82.9027 188.45 83.8187 191.883 82.8212C197.736 81.1203 203.963 83.8893 206.62 89.3751C207.829 91.8705 208.894 94.4359 209.807 97.0597C211.812 102.82 209.367 109.187 204.022 112.124C200.889 113.846 198.91 117.119 198.91 120.752C198.91 124.384 200.889 127.658 204.022 129.379C209.367 132.317 211.812 138.683 209.807 144.444C208.894 147.068 207.829 149.633 206.62 152.128C203.963 157.614 197.736 160.383 191.883 158.682C188.45 157.685 184.737 158.601 182.169 161.169C179.601 163.737 178.685 167.45 179.682 170.883C181.383 176.736 178.614 182.963 173.128 185.62C170.633 186.829 168.068 187.894 165.444 188.807C159.683 190.812 153.317 188.367 150.379 183.022C148.658 179.889 145.384 177.91 141.752 177.91C138.119 177.91 134.846 179.889 133.124 183.022C130.187 188.367 123.82 190.812 118.06 188.807C115.436 187.894 112.871 186.829 110.375 185.62C104.889 182.963 102.12 176.736 103.821 170.883C104.819 167.45 103.903 163.737 101.334 161.169C98.7659 158.601 95.0531 157.685 91.6206 158.682C85.7672 160.383 79.5404 157.614 76.8829 152.128C75.6741 149.633 74.6098 147.068 73.6965 144.444C71.6913 138.683 74.1363 132.317 79.4818 129.379C82.6147 127.658 84.5929 124.384 84.5929 120.752C84.5929 117.119 82.6147 113.846 79.4818 112.124C74.1363 109.187 71.6913 102.82 73.6965 97.0597ZM141.752 145.752C155.559 145.752 166.752 134.559 166.752 120.752C166.752 106.945 155.559 95.7517 141.752 95.7517C127.945 95.7517 116.752 106.945 116.752 120.752C116.752 134.559 127.945 145.752 141.752 145.752ZM141.752 133.252C134.848 133.252 129.252 127.655 129.252 120.752C129.252 113.848 134.848 108.252 141.752 108.252C148.655 108.252 154.252 113.848 154.252 120.752C154.252 127.655 148.655 133.252 141.752 133.252Z" fill="white"/>
</mask>
<g mask="url(#mask1_530_26)">
<path d="M216.752 45.7517H66.752V195.752H216.752V45.7517Z" fill="#535353"/>
</g>
<rect x="43.4717" y="176.472" width="17.3087" height="17.3087" fill="#D9D9D9"/>
<path d="M50.2871 194.392C50.8429 194.492 51.4155 194.545 52.0004 194.545C57.2721 194.545 61.5456 190.272 61.5456 185C61.5456 180.334 58.1976 176.45 53.7728 175.619C56.6179 166.498 62.2699 162.886 70.7289 164.783L74.9717 168.328H80.9732L84.2699 176.202L78.5978 180.448V187.935L84.2699 195.215L80.9732 200.402H74.9717L68.5834 203.896V212.927L60.9102 217.523L52.8083 210.594H47.8135L41.8446 217.523L34.8877 212.927V203.896C42.4905 206.468 47.6236 203.3 50.2871 194.392ZM52.0004 188.182C50.2432 188.182 48.8187 186.757 48.8187 185C48.8187 183.243 50.2432 181.818 52.0004 181.818C53.7576 181.818 55.1822 183.243 55.1822 185C55.1822 186.757 53.7576 188.182 52.0004 188.182Z" fill="#9B9B9B"/>
<path d="M50.2871 194.392C50.8429 194.492 51.4155 194.545 52.0004 194.545C57.2721 194.545 61.5456 190.272 61.5456 185C61.5456 180.334 58.1976 176.45 53.7728 175.619C56.6179 166.498 62.2699 162.886 70.7289 164.783L74.9717 168.328H80.9732L84.2699 176.202L78.5978 180.448V187.935L84.2699 195.215L80.9732 200.402H74.9717L68.5834 203.896V212.927L60.9102 217.523L52.8083 210.594H47.8135L41.8446 217.523L34.8877 212.927V203.896C42.4905 206.468 47.6236 203.3 50.2871 194.392ZM52.0004 188.182C50.2432 188.182 48.8187 186.757 48.8187 185C48.8187 183.243 50.2432 181.818 52.0004 181.818C53.7576 181.818 55.1822 183.243 55.1822 185C55.1822 186.757 53.7576 188.182 52.0004 188.182Z" fill="#9B9B9B"/>
<mask id="mask2_530_26" style="mask-type:luminance" maskUnits="userSpaceOnUse" x="34" y="164" width="51" height="54">
<path d="M50.2861 194.392C50.8419 194.492 51.4145 194.545 51.9994 194.545C57.2711 194.545 61.5447 190.272 61.5447 185C61.5447 180.334 58.1966 176.45 53.7719 175.619C56.6169 166.498 62.2689 162.886 70.7279 164.783L74.9707 168.328H80.9722L84.2689 176.202L78.5968 180.448V187.935L84.2689 195.215L80.9722 200.402H74.9707L68.5824 203.896V212.927L60.9092 217.523L52.8073 210.594H47.8125L41.8437 217.523L34.8867 212.927V203.896C42.4895 206.468 47.6226 203.3 50.2861 194.392ZM51.9994 188.182C50.2422 188.182 48.8177 186.757 48.8177 185C48.8177 183.243 50.2422 181.818 51.9994 181.818C53.7567 181.818 55.1812 183.243 55.1812 185C55.1812 186.757 53.7567 188.182 51.9994 188.182Z" fill="white"/>
</mask>
<g mask="url(#mask2_530_26)">
<path d="M90.1811 146.819H13.8193V223.181H90.1811V146.819Z" fill="#E2E2E2"/>
</g>
<path d="M54.0372 175.676C53.4813 175.575 52.9087 175.523 52.3238 175.523C47.0521 175.523 42.7786 179.796 42.7786 185.068C42.7786 189.734 46.1266 193.618 50.5514 194.449C47.7064 203.57 42.0544 207.182 33.5953 205.285L29.3525 201.74H23.351L20.0543 193.866L25.7264 189.62V182.133L20.0543 174.853L23.351 169.666H29.3525L35.7408 166.172V157.141L43.414 152.545L51.5159 159.474H56.5107L62.4796 152.545L69.4365 157.141V166.172C61.8337 163.6 56.7006 166.768 54.0372 175.676ZM52.3238 181.886C54.081 181.886 55.5055 183.311 55.5055 185.068C55.5055 186.825 54.081 188.25 52.3238 188.25C50.5666 188.25 49.1421 186.825 49.1421 185.068C49.1421 183.311 50.5666 181.886 52.3238 181.886Z" fill="#9B9B9B"/>
<path d="M54.0372 175.676C53.4813 175.575 52.9087 175.523 52.3238 175.523C47.0521 175.523 42.7786 179.796 42.7786 185.068C42.7786 189.734 46.1266 193.618 50.5514 194.449C47.7064 203.57 42.0544 207.182 33.5953 205.285L29.3525 201.74H23.351L20.0543 193.866L25.7264 189.62V182.133L20.0543 174.853L23.351 169.666H29.3525L35.7408 166.172V157.141L43.414 152.545L51.5159 159.474H56.5107L62.4796 152.545L69.4365 157.141V166.172C61.8337 163.6 56.7006 166.768 54.0372 175.676ZM52.3238 181.886C54.081 181.886 55.5055 183.311 55.5055 185.068C55.5055 186.825 54.081 188.25 52.3238 188.25C50.5666 188.25 49.1421 186.825 49.1421 185.068C49.1421 183.311 50.5666 181.886 52.3238 181.886Z" fill="#9B9B9B"/>
<path d="M23.3643 175.031C26.8815 176.964 29.2652 180.703 29.2652 185C29.2652 189.297 26.8815 193.036 23.3643 194.969C23.7498 196.076 24.1976 197.154 24.7036 198.199C28.5569 197.079 32.8863 198.038 35.9241 201.076C38.9619 204.114 39.9209 208.443 38.8011 212.296C39.8457 212.802 40.9237 213.25 42.0309 213.636C43.9636 210.119 47.7034 207.735 52 207.735C56.2966 207.735 60.0364 210.119 61.9691 213.636C63.0763 213.25 64.1543 212.802 65.1989 212.296C64.0791 208.443 65.0381 204.114 68.0759 201.076C71.1137 198.038 75.4431 197.079 79.2964 198.199C79.8024 197.154 80.2502 196.076 80.6357 194.969C77.1185 193.036 74.7348 189.297 74.7348 185C74.7348 180.703 77.1185 176.964 80.6357 175.031C80.2502 173.924 79.8024 172.846 79.2964 171.801C75.4431 172.921 71.1137 171.962 68.0759 168.924C65.0381 165.886 64.0791 161.557 65.1989 157.704C64.1543 157.198 63.0763 156.75 61.9691 156.364C60.0364 159.881 56.2966 162.265 52 162.265C47.7034 162.265 43.9636 159.881 42.0309 156.364C40.9237 156.75 39.8457 157.198 38.8011 157.704C39.9209 161.557 38.9619 165.886 35.9241 168.924C32.8863 171.962 28.5569 172.921 24.7036 171.801C24.1976 172.846 23.7498 173.924 23.3643 175.031ZM17.3546 172.939C17.8195 171.603 18.3613 170.297 18.9767 169.027C20.3296 166.234 23.4995 164.824 26.4793 165.69C28.2267 166.198 30.1169 165.732 31.4244 164.424C32.7319 163.117 33.1982 161.227 32.6904 159.479C31.8245 156.5 33.2342 153.33 36.0268 151.977C37.2972 151.361 38.6032 150.82 39.9389 150.355C42.8714 149.334 46.1124 150.578 47.6078 153.3C48.4843 154.895 50.1507 155.902 52 155.902C53.8493 155.902 55.5157 154.895 56.3922 153.3C57.8876 150.578 61.1286 149.334 64.0611 150.355C65.3968 150.82 66.7028 151.361 67.9732 151.977C70.7658 153.33 72.1755 156.5 71.3096 159.479C70.8018 161.227 71.2681 163.117 72.5756 164.424C73.8831 165.732 75.7733 166.198 77.5206 165.69C80.5005 164.824 83.6704 166.234 85.0233 169.027C85.6387 170.297 86.1805 171.603 86.6454 172.939C87.6662 175.871 86.4215 179.112 83.7003 180.608C82.1053 181.484 81.0983 183.151 81.0983 185C81.0983 186.849 82.1053 188.516 83.7003 189.392C86.4215 190.888 87.6662 194.129 86.6454 197.061C86.1805 198.397 85.6387 199.703 85.0233 200.973C83.6704 203.766 80.5005 205.176 77.5206 204.31C75.7733 203.802 73.8831 204.268 72.5756 205.576C71.2681 206.883 70.8018 208.773 71.3096 210.521C72.1755 213.5 70.7658 216.67 67.9732 218.023C66.7028 218.639 65.3968 219.18 64.0611 219.645C61.1286 220.666 57.8876 219.422 56.3922 216.7C55.5157 215.105 53.8493 214.098 52 214.098C50.1507 214.098 48.4843 215.105 47.6078 216.7C46.1124 219.422 42.8714 220.666 39.9389 219.645C38.6032 219.18 37.2972 218.639 36.0268 218.023C33.2342 216.67 31.8245 213.5 32.6904 210.521C33.1982 208.773 32.7319 206.883 31.4244 205.576C30.1169 204.268 28.2267 203.802 26.4793 204.31C23.4995 205.176 20.3296 203.766 18.9767 200.973C18.3613 199.703 17.8195 198.397 17.3546 197.061C16.3338 194.129 17.5785 190.888 20.2997 189.392C21.8947 188.516 22.9017 186.849 22.9017 185C22.9017 183.151 21.8947 181.484 20.2997 180.608C17.5785 179.112 16.3338 175.871 17.3546 172.939ZM52 197.727C59.0289 197.727 64.727 192.029 64.727 185C64.727 177.971 59.0289 172.273 52 172.273C44.9711 172.273 39.273 177.971 39.273 185C39.273 192.029 44.9711 197.727 52 197.727ZM52 191.363C48.4855 191.363 45.6365 188.514 45.6365 185C45.6365 181.486 48.4855 178.637 52 178.637C55.5145 178.637 58.3635 181.486 58.3635 185C58.3635 188.514 55.5145 191.363 52 191.363Z" fill="black"/>
<mask id="mask3_530_26" style="mask-type:luminance" maskUnits="userSpaceOnUse" x="17" y="150" width="70" height="70">
<path d="M23.3643 175.031C26.8815 176.964 29.2652 180.703 29.2652 185C29.2652 189.297 26.8815 193.036 23.3643 194.969C23.7498 196.076 24.1976 197.154 24.7036 198.199C28.5569 197.079 32.8863 198.038 35.9241 201.076C38.9619 204.114 39.9209 208.443 38.8011 212.296C39.8457 212.802 40.9237 213.25 42.0309 213.636C43.9636 210.119 47.7034 207.735 52 207.735C56.2966 207.735 60.0364 210.119 61.9691 213.636C63.0763 213.25 64.1543 212.802 65.1989 212.296C64.0791 208.443 65.0381 204.114 68.0759 201.076C71.1137 198.038 75.4431 197.079 79.2964 198.199C79.8024 197.154 80.2502 196.076 80.6357 194.969C77.1185 193.036 74.7348 189.297 74.7348 185C74.7348 180.703 77.1185 176.964 80.6357 175.031C80.2502 173.924 79.8024 172.846 79.2964 171.801C75.4431 172.921 71.1137 171.962 68.0759 168.924C65.0381 165.886 64.0791 161.557 65.1989 157.704C64.1543 157.198 63.0763 156.75 61.9691 156.364C60.0364 159.881 56.2966 162.265 52 162.265C47.7034 162.265 43.9636 159.881 42.0309 156.364C40.9237 156.75 39.8457 157.198 38.8011 157.704C39.9209 161.557 38.9619 165.886 35.9241 168.924C32.8863 171.962 28.5569 172.921 24.7036 171.801C24.1976 172.846 23.7498 173.924 23.3643 175.031ZM17.3546 172.939C17.8195 171.603 18.3613 170.297 18.9767 169.027C20.3296 166.234 23.4995 164.824 26.4793 165.69C28.2267 166.198 30.1169 165.732 31.4244 164.424C32.7319 163.117 33.1982 161.227 32.6904 159.479C31.8245 156.5 33.2342 153.33 36.0268 151.977C37.2972 151.361 38.6032 150.82 39.9389 150.355C42.8714 149.334 46.1124 150.578 47.6078 153.3C48.4843 154.895 50.1507 155.902 52 155.902C53.8493 155.902 55.5157 154.895 56.3922 153.3C57.8876 150.578 61.1286 149.334 64.0611 150.355C65.3968 150.82 66.7028 151.361 67.9732 151.977C70.7658 153.33 72.1755 156.5 71.3096 159.479C70.8018 161.227 71.2681 163.117 72.5756 164.424C73.8831 165.732 75.7733 166.198 77.5206 165.69C80.5005 164.824 83.6704 166.234 85.0233 169.027C85.6387 170.297 86.1805 171.603 86.6454 172.939C87.6662 175.871 86.4215 179.112 83.7003 180.608C82.1053 181.484 81.0983 183.151 81.0983 185C81.0983 186.849 82.1053 188.516 83.7003 189.392C86.4215 190.888 87.6662 194.129 86.6454 197.061C86.1805 198.397 85.6387 199.703 85.0233 200.973C83.6704 203.766 80.5005 205.176 77.5206 204.31C75.7733 203.802 73.8831 204.268 72.5756 205.576C71.2681 206.883 70.8018 208.773 71.3096 210.521C72.1755 213.5 70.7658 216.67 67.9732 218.023C66.7028 218.639 65.3968 219.18 64.0611 219.645C61.1286 220.666 57.8876 219.422 56.3922 216.7C55.5157 215.105 53.8493 214.098 52 214.098C50.1507 214.098 48.4843 215.105 47.6078 216.7C46.1124 219.422 42.8714 220.666 39.9389 219.645C38.6032 219.18 37.2972 218.639 36.0268 218.023C33.2342 216.67 31.8245 213.5 32.6904 210.521C33.1982 208.773 32.7319 206.883 31.4244 205.576C30.1169 204.268 28.2267 203.802 26.4793 204.31C23.4995 205.176 20.3296 203.766 18.9767 200.973C18.3613 199.703 17.8195 198.397 17.3546 197.061C16.3338 194.129 17.5785 190.888 20.2997 189.392C21.8947 188.516 22.9017 186.849 22.9017 185C22.9017 183.151 21.8947 181.484 20.2997 180.608C17.5785 179.112 16.3338 175.871 17.3546 172.939ZM52 197.727C59.0289 197.727 64.727 192.029 64.727 185C64.727 177.971 59.0289 172.273 52 172.273C44.9711 172.273 39.273 177.971 39.273 185C39.273 192.029 44.9711 197.727 52 197.727ZM52 191.363C48.4855 191.363 45.6365 188.514 45.6365 185C45.6365 181.486 48.4855 178.637 52 178.637C55.5145 178.637 58.3635 181.486 58.3635 185C58.3635 188.514 55.5145 191.363 52 191.363Z" fill="white"/>
</mask>
<g mask="url(#mask3_530_26)">
<path d="M90.1811 146.819H13.8193V223.181H90.1811V146.819Z" fill="#535353"/>
</g>
<rect x="682" y="160.168" width="15" height="214" fill="#707070"/>
<rect x="697" y="160.168" width="15" height="214" fill="#464646"/>
<path fill-rule="evenodd" clip-rule="evenodd" d="M675 95C662.435 102.383 654 116.041 654 131.668C654 155.141 673.028 174.168 696.5 174.168C719.972 174.168 739 155.141 739 131.668C739 116.041 730.565 102.383 718 95V134.168H717.294L696.5 148.216L675.844 134.168H675V95Z" fill="#313131"/>
<path fill-rule="evenodd" clip-rule="evenodd" d="M697 431.168C716.33 431.168 732 415.498 732 396.168C732 376.838 716.33 361.168 697 361.168C677.67 361.168 662 376.838 662 396.168C662 415.498 677.67 431.168 697 431.168ZM711 375.168H682V376.699L670 396.668L682 416.638V418.168H711V416.638L723 396.668L711 376.699V375.168Z" fill="#313131"/>
<path d="M708.995 373.89L712.115 371.387L714.618 374.507L713 380L710.999 377.001L708.995 373.89Z" fill="#313131"/>
<path d="M712.978 413.323L716.526 415.169L714.68 418.718L709.001 419.451L710.938 416.411L712.978 413.323Z" fill="#313131"/>
<path d="M683.713 419.099L680.588 421.595L678.091 418.47L679.72 412.98L681.716 415.983L683.713 419.099Z" fill="#313131"/>
<path d="M679.972 379.99L676.31 378.381L677.919 374.719L683.538 373.614L687.999 367L679.972 379.99Z" fill="#313131"/>
<path d="M670.5 130.5L691 144.5L690 145H684L670.5 130.5Z" fill="#313131"/>
<path d="M705 142.5L719 133L718 135L717 135L705 142.5Z" fill="#313131"/>
<rect x="494" y="644" width="121" height="38" rx="19" fill="#D9D9D9"/>
<circle cx="468" cy="662" r="51" fill="#D9D9D9"/>
<path fill-rule="evenodd" clip-rule="evenodd" d="M512.956 664C512.985 663.337 513 662.67 513 662C513 637.147 492.853 617 468 617C443.147 617 423 637.147 423 662C423 662.67 423.015 663.337 423.044 664H512.956Z" fill="#F3EBD7"/>
<path d="M528 675H544V689C544 691.761 541.761 694 539 694H533C530.239 694 528 691.761 528 689V675Z" fill="#D9D9D9"/>
<path d="M578 675H594V689C594 691.761 591.761 694 589 694H583C580.239 694 578 691.761 578 689V675Z" fill="#D9D9D9"/>
<path d="M553 675H569V689C569 691.761 566.761 694 564 694H558C555.239 694 553 691.761 553 689V675Z" fill="#D9D9D9"/>
<path d="M496 648H595C603.837 648 611 655.163 611 664V664H496V648Z" fill="#F3EBD7"/>
<circle cx="447" cy="663" r="15" fill="#949494"/>
</svg>
