<svg width="32" height="24" viewBox="0 0 24 24" fill="none" xmlns="http://www.w3.org/2000/svg">
<path d="M19 20C19.5523 20 20 19.5523 20 19C20 18.4477 19.5523 18 19 18C18.4477 18 18 18.4477 18 19C18 19.5523 18.4477 20 19 20Z" fill="black"/>
<path d="M16 18H4V20H16V18Z" fill="black"/>
<path d="M19 6C19.5523 6 20 5.55228 20 5C20 4.44772 19.5523 4 19 4C18.4477 4 18 4.44772 18 5C18 5.55228 18.4477 6 19 6Z" fill="black"/>
<path d="M16 4H4V6H16V4Z" fill="black"/>
<path d="M22 10C22.5304 10 23.0391 9.78929 23.4142 9.41421C23.7893 9.03914 24 8.53043 24 8V2C24 1.46957 23.7893 0.960859 23.4142 0.585786C23.0391 0.210714 22.5304 0 22 0H2C1.46957 0 0.960859 0.210714 0.585786 0.585786C0.210714 0.960859 0 1.46957 0 2V8C0 8.53043 0.210714 9.03914 0.585786 9.41421C0.960859 9.78929 1.46957 10 2 10H4V14H2C1.46957 14 0.960859 14.2107 0.585786 14.5858C0.210714 14.9609 0 15.4696 0 16V22C0 22.5304 0.210714 23.0391 0.585786 23.4142C0.960859 23.7893 1.46957 24 2 24H22C22.5304 24 23.0391 23.7893 23.4142 23.4142C23.7893 23.0391 24 22.5304 24 22V16C24 15.4696 23.7893 14.9609 23.4142 14.5858C23.0391 14.2107 22.5304 14 22 14H20V10H22ZM2 2H22V8H2V2ZM22 22H2V16H22V22ZM18 14H6V10H18V14Z" fill="black"/>
</svg>
