<svg width="32" height="24" viewBox="0 0 400 538" fill="none" xmlns="http://www.w3.org/2000/svg">
<path fill-rule="evenodd" clip-rule="evenodd" d="M87.4367 72.9887C58.4253 87.4943 50 102.908 50 112.5C50 122.092 58.4253 137.506 87.4367 152.011C114.952 165.769 154.713 175 200 175C245.287 175 285.047 165.769 312.563 152.011C341.573 137.506 350 122.092 350 112.5C350 102.908 341.573 87.4943 312.563 72.9887C285.047 59.231 245.287 50 200 50C154.713 50 114.952 59.231 87.4367 72.9887ZM350 188.281C345.117 191.347 340.06 194.165 334.923 196.733C299.103 214.643 251.363 225 200 225C148.637 225 100.898 214.643 65.076 196.733C59.9403 194.165 54.8847 191.347 50 188.281V220.833C50 232.183 59.2557 248.523 87.8563 263.507C115.273 277.867 154.88 287.5 200 287.5C245.12 287.5 284.727 277.867 312.143 263.507C340.743 248.523 350 232.183 350 220.833V188.281ZM400 112.5V220.833C400 222.233 399.963 223.623 399.887 225H400V320.833C400 322.233 399.963 323.623 399.887 325H400V420.833C400 460.107 370.08 489.603 335.343 507.797C299.423 526.613 251.53 537.5 200 537.5C148.47 537.5 100.577 526.613 64.656 507.797C29.9193 489.603 0 460.107 0 420.833V325H0.112995C0.0379945 323.623 0 322.233 0 320.833V225H0.112995C0.0379945 223.623 0 222.233 0 220.833V112.5C0 73.767 30.7497 45.4307 65.076 28.2673C100.898 10.3567 148.637 0 200 0C251.363 0 299.103 10.3567 334.923 28.2673C369.25 45.4307 400 73.767 400 112.5ZM50 399.223V420.833C50 432.183 59.2557 448.523 87.8563 463.507C115.273 477.867 154.88 487.5 200 487.5C245.12 487.5 284.727 477.867 312.143 463.507C340.743 448.523 350 432.183 350 420.833V399.223C345.267 402.313 340.353 405.173 335.343 407.797C299.423 426.613 251.53 437.5 200 437.5C148.47 437.5 100.577 426.613 64.656 407.797C59.6453 405.173 54.735 402.313 50 399.223ZM335.343 307.797C340.353 305.173 345.267 302.313 350 299.223V320.833C350 332.183 340.743 348.523 312.143 363.507C284.727 377.867 245.12 387.5 200 387.5C154.88 387.5 115.273 377.867 87.8563 363.507C59.2557 348.523 50 332.183 50 320.833V299.223C54.735 302.313 59.6453 305.173 64.656 307.797C100.577 326.613 148.47 337.5 200 337.5C251.53 337.5 299.423 326.613 335.343 307.797Z" fill="#000000"/>
</svg>
